<mxfile host="app.diagrams.net" modified="2023-09-15T08:27:48.845Z" agent="Mozilla/5.0 (Macintosh; Intel Mac OS X 10_15_7) AppleWebKit/537.36 (KHTML, like Gecko) Chrome/116.0.0.0 Safari/537.36" etag="DVYt2qfUlWchg53DSPvO" version="21.7.4" type="device">
  <diagram name="Page-1" id="3hGJmoj-orTdDMjbY5x5">
    <mxGraphModel dx="1886" dy="640" grid="1" gridSize="10" guides="1" tooltips="1" connect="1" arrows="1" fold="1" page="1" pageScale="1" pageWidth="827" pageHeight="1169" math="0" shadow="0">
      <root>
        <mxCell id="0" />
        <mxCell id="1" parent="0" />
        <mxCell id="2jY6_2lJNfAR5JcigIlx-311" value="" style="endArrow=classic;html=1;rounded=0;" edge="1" parent="1">
          <mxGeometry width="50" height="50" relative="1" as="geometry">
            <mxPoint x="260" y="2340" as="sourcePoint" />
            <mxPoint x="420" y="2600" as="targetPoint" />
            <Array as="points">
              <mxPoint x="260" y="2600" />
              <mxPoint x="300" y="2600" />
              <mxPoint x="300" y="2340" />
              <mxPoint x="340" y="2340" />
              <mxPoint x="340" y="2600" />
              <mxPoint x="380" y="2600" />
              <mxPoint x="380" y="2340" />
              <mxPoint x="420" y="2340" />
            </Array>
          </mxGeometry>
        </mxCell>
        <mxCell id="2jY6_2lJNfAR5JcigIlx-250" value="" style="shape=flexArrow;endArrow=classic;html=1;rounded=0;" edge="1" parent="1" source="2jY6_2lJNfAR5JcigIlx-205">
          <mxGeometry width="50" height="50" relative="1" as="geometry">
            <mxPoint x="390" y="2060" as="sourcePoint" />
            <mxPoint x="580" y="1950" as="targetPoint" />
          </mxGeometry>
        </mxCell>
        <mxCell id="2jY6_2lJNfAR5JcigIlx-109" value="" style="rounded=0;whiteSpace=wrap;html=1;fillColor=none;" vertex="1" parent="1">
          <mxGeometry x="160" y="490" width="210" height="490" as="geometry" />
        </mxCell>
        <mxCell id="2jY6_2lJNfAR5JcigIlx-124" value="" style="rounded=0;whiteSpace=wrap;html=1;fillColor=none;" vertex="1" parent="1">
          <mxGeometry x="580" y="1350" width="210" height="320" as="geometry" />
        </mxCell>
        <mxCell id="2jY6_2lJNfAR5JcigIlx-168" value="" style="rounded=0;whiteSpace=wrap;html=1;fillColor=none;" vertex="1" parent="1">
          <mxGeometry x="360" y="1350" width="210" height="320" as="geometry" />
        </mxCell>
        <mxCell id="2jY6_2lJNfAR5JcigIlx-178" value="" style="rounded=0;whiteSpace=wrap;html=1;fillColor=none;" vertex="1" parent="1">
          <mxGeometry x="140" y="1350" width="210" height="320" as="geometry" />
        </mxCell>
        <mxCell id="2jY6_2lJNfAR5JcigIlx-113" value="" style="rounded=0;whiteSpace=wrap;html=1;fillColor=none;" vertex="1" parent="1">
          <mxGeometry x="610" y="640" width="210" height="340" as="geometry" />
        </mxCell>
        <mxCell id="2jY6_2lJNfAR5JcigIlx-17" style="edgeStyle=orthogonalEdgeStyle;rounded=0;orthogonalLoop=1;jettySize=auto;html=1;exitX=0.5;exitY=0;exitDx=0;exitDy=0;entryX=0.5;entryY=1;entryDx=0;entryDy=0;fillColor=#0050ef;strokeColor=#001DBC;" edge="1" parent="1" source="2jY6_2lJNfAR5JcigIlx-2" target="2jY6_2lJNfAR5JcigIlx-11">
          <mxGeometry relative="1" as="geometry" />
        </mxCell>
        <mxCell id="2jY6_2lJNfAR5JcigIlx-2" value="hidden&lt;br style=&quot;border-color: var(--border-color);&quot;&gt;activations" style="ellipse;whiteSpace=wrap;html=1;" vertex="1" parent="1">
          <mxGeometry x="300" y="360" width="80" height="40" as="geometry" />
        </mxCell>
        <mxCell id="2jY6_2lJNfAR5JcigIlx-10" style="rounded=0;orthogonalLoop=1;jettySize=auto;html=1;exitX=0.5;exitY=0;exitDx=0;exitDy=0;entryX=0.5;entryY=1;entryDx=0;entryDy=0;fillColor=#f8cecc;strokeColor=#b85450;" edge="1" parent="1" source="2jY6_2lJNfAR5JcigIlx-7" target="2jY6_2lJNfAR5JcigIlx-2">
          <mxGeometry relative="1" as="geometry" />
        </mxCell>
        <mxCell id="2jY6_2lJNfAR5JcigIlx-7" value="char 1 integer input" style="rounded=1;whiteSpace=wrap;html=1;" vertex="1" parent="1">
          <mxGeometry x="160" y="410" width="120" height="40" as="geometry" />
        </mxCell>
        <mxCell id="2jY6_2lJNfAR5JcigIlx-8" value="char 2 integer input" style="rounded=1;whiteSpace=wrap;html=1;" vertex="1" parent="1">
          <mxGeometry x="160" y="330" width="120" height="40" as="geometry" />
        </mxCell>
        <mxCell id="2jY6_2lJNfAR5JcigIlx-9" value="char 3 integer input" style="rounded=1;whiteSpace=wrap;html=1;" vertex="1" parent="1">
          <mxGeometry x="160" y="250" width="120" height="40" as="geometry" />
        </mxCell>
        <mxCell id="2jY6_2lJNfAR5JcigIlx-18" style="edgeStyle=orthogonalEdgeStyle;rounded=0;orthogonalLoop=1;jettySize=auto;html=1;exitX=0.5;exitY=0;exitDx=0;exitDy=0;fillColor=#0050ef;strokeColor=#001DBC;" edge="1" parent="1" source="2jY6_2lJNfAR5JcigIlx-11">
          <mxGeometry relative="1" as="geometry">
            <mxPoint x="340.2068965517242" y="240" as="targetPoint" />
          </mxGeometry>
        </mxCell>
        <mxCell id="2jY6_2lJNfAR5JcigIlx-11" value="hidden&lt;br style=&quot;border-color: var(--border-color);&quot;&gt;activations" style="ellipse;whiteSpace=wrap;html=1;" vertex="1" parent="1">
          <mxGeometry x="300" y="280" width="80" height="40" as="geometry" />
        </mxCell>
        <mxCell id="2jY6_2lJNfAR5JcigIlx-19" style="edgeStyle=orthogonalEdgeStyle;rounded=0;orthogonalLoop=1;jettySize=auto;html=1;exitX=0.5;exitY=0;exitDx=0;exitDy=0;entryX=0.5;entryY=1;entryDx=0;entryDy=0;fillColor=#ffe6cc;strokeColor=#d79b00;" edge="1" parent="1" source="2jY6_2lJNfAR5JcigIlx-13" target="2jY6_2lJNfAR5JcigIlx-15">
          <mxGeometry relative="1" as="geometry" />
        </mxCell>
        <mxCell id="2jY6_2lJNfAR5JcigIlx-13" value="hidden&lt;br&gt;activations" style="ellipse;whiteSpace=wrap;html=1;" vertex="1" parent="1">
          <mxGeometry x="300" y="200" width="80" height="40" as="geometry" />
        </mxCell>
        <mxCell id="2jY6_2lJNfAR5JcigIlx-15" value="output activations" style="rhombus;whiteSpace=wrap;html=1;" vertex="1" parent="1">
          <mxGeometry x="230" y="140" width="220" height="40" as="geometry" />
        </mxCell>
        <mxCell id="2jY6_2lJNfAR5JcigIlx-20" value="" style="endArrow=classic;html=1;rounded=0;fillColor=#ffe6cc;strokeColor=#d79b00;" edge="1" parent="1">
          <mxGeometry width="50" height="50" relative="1" as="geometry">
            <mxPoint y="605" as="sourcePoint" />
            <mxPoint x="40" y="605" as="targetPoint" />
          </mxGeometry>
        </mxCell>
        <mxCell id="2jY6_2lJNfAR5JcigIlx-21" value="hidden-to-out" style="text;html=1;strokeColor=none;fillColor=none;align=center;verticalAlign=middle;whiteSpace=wrap;rounded=0;" vertex="1" parent="1">
          <mxGeometry x="40" y="590" width="80" height="30" as="geometry" />
        </mxCell>
        <mxCell id="2jY6_2lJNfAR5JcigIlx-22" value="input-to-hidden (embedding)" style="text;html=1;strokeColor=none;fillColor=none;align=center;verticalAlign=middle;whiteSpace=wrap;rounded=0;" vertex="1" parent="1">
          <mxGeometry x="40" y="630" width="90" height="30" as="geometry" />
        </mxCell>
        <mxCell id="2jY6_2lJNfAR5JcigIlx-23" value="" style="endArrow=classic;html=1;rounded=0;fillColor=#f8cecc;strokeColor=#b85450;" edge="1" parent="1">
          <mxGeometry width="50" height="50" relative="1" as="geometry">
            <mxPoint y="645" as="sourcePoint" />
            <mxPoint x="40" y="645" as="targetPoint" />
          </mxGeometry>
        </mxCell>
        <mxCell id="2jY6_2lJNfAR5JcigIlx-24" value="hidden-to-hidden" style="text;html=1;strokeColor=none;fillColor=none;align=center;verticalAlign=middle;whiteSpace=wrap;rounded=0;" vertex="1" parent="1">
          <mxGeometry x="40" y="670" width="100" height="30" as="geometry" />
        </mxCell>
        <mxCell id="2jY6_2lJNfAR5JcigIlx-25" value="" style="endArrow=classic;html=1;rounded=0;fillColor=#0050ef;strokeColor=#001DBC;" edge="1" parent="1">
          <mxGeometry width="50" height="50" relative="1" as="geometry">
            <mxPoint y="685" as="sourcePoint" />
            <mxPoint x="40" y="685" as="targetPoint" />
          </mxGeometry>
        </mxCell>
        <mxCell id="2jY6_2lJNfAR5JcigIlx-12" style="rounded=0;orthogonalLoop=1;jettySize=auto;html=1;exitX=0.5;exitY=0;exitDx=0;exitDy=0;entryX=0.5;entryY=1;entryDx=0;entryDy=0;fillColor=#f8cecc;strokeColor=#b85450;" edge="1" parent="1" source="2jY6_2lJNfAR5JcigIlx-8" target="2jY6_2lJNfAR5JcigIlx-11">
          <mxGeometry relative="1" as="geometry" />
        </mxCell>
        <mxCell id="2jY6_2lJNfAR5JcigIlx-14" style="rounded=0;orthogonalLoop=1;jettySize=auto;html=1;exitX=0.5;exitY=0;exitDx=0;exitDy=0;entryX=0.5;entryY=1;entryDx=0;entryDy=0;fillColor=#f8cecc;strokeColor=#b85450;" edge="1" parent="1" source="2jY6_2lJNfAR5JcigIlx-9" target="2jY6_2lJNfAR5JcigIlx-13">
          <mxGeometry relative="1" as="geometry" />
        </mxCell>
        <mxCell id="2jY6_2lJNfAR5JcigIlx-44" style="edgeStyle=orthogonalEdgeStyle;rounded=0;orthogonalLoop=1;jettySize=auto;html=1;exitX=0.5;exitY=0;exitDx=0;exitDy=0;entryX=0.5;entryY=1;entryDx=0;entryDy=0;fillColor=#0050ef;strokeColor=#001DBC;" edge="1" parent="1" source="2jY6_2lJNfAR5JcigIlx-45" target="2jY6_2lJNfAR5JcigIlx-51">
          <mxGeometry relative="1" as="geometry" />
        </mxCell>
        <mxCell id="2jY6_2lJNfAR5JcigIlx-45" value="hidden&lt;br style=&quot;border-color: var(--border-color);&quot;&gt;activations" style="ellipse;whiteSpace=wrap;html=1;" vertex="1" parent="1">
          <mxGeometry x="240" y="840" width="80" height="40" as="geometry" />
        </mxCell>
        <mxCell id="2jY6_2lJNfAR5JcigIlx-46" style="rounded=0;orthogonalLoop=1;jettySize=auto;html=1;exitX=0.5;exitY=0;exitDx=0;exitDy=0;entryX=0.5;entryY=1;entryDx=0;entryDy=0;fillColor=#f8cecc;strokeColor=#b85450;" edge="1" parent="1" source="2jY6_2lJNfAR5JcigIlx-47" target="2jY6_2lJNfAR5JcigIlx-45">
          <mxGeometry relative="1" as="geometry" />
        </mxCell>
        <mxCell id="2jY6_2lJNfAR5JcigIlx-47" value="&quot;.&quot;&amp;nbsp;" style="rounded=1;whiteSpace=wrap;html=1;" vertex="1" parent="1">
          <mxGeometry x="170" y="890" width="50" height="40" as="geometry" />
        </mxCell>
        <mxCell id="2jY6_2lJNfAR5JcigIlx-48" value="&quot;.&quot;&amp;nbsp;" style="rounded=1;whiteSpace=wrap;html=1;" vertex="1" parent="1">
          <mxGeometry x="170" y="810" width="50" height="40" as="geometry" />
        </mxCell>
        <mxCell id="2jY6_2lJNfAR5JcigIlx-49" value="&quot;.&quot;&amp;nbsp;" style="rounded=1;whiteSpace=wrap;html=1;" vertex="1" parent="1">
          <mxGeometry x="170" y="730" width="50" height="40" as="geometry" />
        </mxCell>
        <mxCell id="2jY6_2lJNfAR5JcigIlx-50" style="edgeStyle=orthogonalEdgeStyle;rounded=0;orthogonalLoop=1;jettySize=auto;html=1;exitX=0.5;exitY=0;exitDx=0;exitDy=0;fillColor=#0050ef;strokeColor=#001DBC;" edge="1" parent="1" source="2jY6_2lJNfAR5JcigIlx-51">
          <mxGeometry relative="1" as="geometry">
            <mxPoint x="280.2068965517242" y="720" as="targetPoint" />
          </mxGeometry>
        </mxCell>
        <mxCell id="2jY6_2lJNfAR5JcigIlx-51" value="hidden&lt;br style=&quot;border-color: var(--border-color);&quot;&gt;activations" style="ellipse;whiteSpace=wrap;html=1;" vertex="1" parent="1">
          <mxGeometry x="240" y="760" width="80" height="40" as="geometry" />
        </mxCell>
        <mxCell id="2jY6_2lJNfAR5JcigIlx-52" style="edgeStyle=orthogonalEdgeStyle;rounded=0;orthogonalLoop=1;jettySize=auto;html=1;exitX=0.5;exitY=0;exitDx=0;exitDy=0;entryX=0.5;entryY=1;entryDx=0;entryDy=0;fillColor=#ffe6cc;strokeColor=#d79b00;" edge="1" parent="1" source="2jY6_2lJNfAR5JcigIlx-53" target="2jY6_2lJNfAR5JcigIlx-54">
          <mxGeometry relative="1" as="geometry" />
        </mxCell>
        <mxCell id="2jY6_2lJNfAR5JcigIlx-53" value="hidden&lt;br&gt;activations" style="ellipse;whiteSpace=wrap;html=1;" vertex="1" parent="1">
          <mxGeometry x="240" y="680" width="80" height="40" as="geometry" />
        </mxCell>
        <mxCell id="2jY6_2lJNfAR5JcigIlx-103" style="edgeStyle=orthogonalEdgeStyle;rounded=0;orthogonalLoop=1;jettySize=auto;html=1;exitX=0.5;exitY=0;exitDx=0;exitDy=0;entryX=0.5;entryY=1;entryDx=0;entryDy=0;dashed=1;endArrow=block;endFill=1;" edge="1" parent="1" source="2jY6_2lJNfAR5JcigIlx-54" target="2jY6_2lJNfAR5JcigIlx-102">
          <mxGeometry relative="1" as="geometry" />
        </mxCell>
        <mxCell id="2jY6_2lJNfAR5JcigIlx-54" value="output activations" style="rhombus;whiteSpace=wrap;html=1;" vertex="1" parent="1">
          <mxGeometry x="200" y="620" width="160" height="40" as="geometry" />
        </mxCell>
        <mxCell id="2jY6_2lJNfAR5JcigIlx-55" style="rounded=0;orthogonalLoop=1;jettySize=auto;html=1;exitX=0.5;exitY=0;exitDx=0;exitDy=0;entryX=0.5;entryY=1;entryDx=0;entryDy=0;fillColor=#f8cecc;strokeColor=#b85450;" edge="1" parent="1" source="2jY6_2lJNfAR5JcigIlx-48" target="2jY6_2lJNfAR5JcigIlx-51">
          <mxGeometry relative="1" as="geometry" />
        </mxCell>
        <mxCell id="2jY6_2lJNfAR5JcigIlx-56" style="rounded=0;orthogonalLoop=1;jettySize=auto;html=1;exitX=0.5;exitY=0;exitDx=0;exitDy=0;entryX=0.5;entryY=1;entryDx=0;entryDy=0;fillColor=#f8cecc;strokeColor=#b85450;" edge="1" parent="1" source="2jY6_2lJNfAR5JcigIlx-49" target="2jY6_2lJNfAR5JcigIlx-53">
          <mxGeometry relative="1" as="geometry" />
        </mxCell>
        <mxCell id="2jY6_2lJNfAR5JcigIlx-57" style="edgeStyle=orthogonalEdgeStyle;rounded=0;orthogonalLoop=1;jettySize=auto;html=1;exitX=0.5;exitY=0;exitDx=0;exitDy=0;dashed=1;endArrow=block;endFill=1;" edge="1" parent="1" source="2jY6_2lJNfAR5JcigIlx-58">
          <mxGeometry relative="1" as="geometry">
            <mxPoint x="280" y="880" as="targetPoint" />
          </mxGeometry>
        </mxCell>
        <mxCell id="2jY6_2lJNfAR5JcigIlx-58" value="dummy activations" style="shape=hexagon;perimeter=hexagonPerimeter2;whiteSpace=wrap;html=1;fixedSize=1;" vertex="1" parent="1">
          <mxGeometry x="240" y="900" width="80" height="40" as="geometry" />
        </mxCell>
        <mxCell id="2jY6_2lJNfAR5JcigIlx-59" value="" style="endArrow=block;html=1;rounded=0;dashed=1;endFill=1;" edge="1" parent="1">
          <mxGeometry width="50" height="50" relative="1" as="geometry">
            <mxPoint y="725" as="sourcePoint" />
            <mxPoint x="40" y="725" as="targetPoint" />
          </mxGeometry>
        </mxCell>
        <mxCell id="2jY6_2lJNfAR5JcigIlx-61" value="pass values" style="text;html=1;strokeColor=none;fillColor=none;align=center;verticalAlign=middle;whiteSpace=wrap;rounded=0;" vertex="1" parent="1">
          <mxGeometry x="42" y="710" width="70" height="30" as="geometry" />
        </mxCell>
        <mxCell id="2jY6_2lJNfAR5JcigIlx-98" style="edgeStyle=orthogonalEdgeStyle;rounded=0;orthogonalLoop=1;jettySize=auto;html=1;exitX=1;exitY=0.5;exitDx=0;exitDy=0;entryX=0.5;entryY=1;entryDx=0;entryDy=0;dashed=1;" edge="1" parent="1" source="2jY6_2lJNfAR5JcigIlx-79" target="2jY6_2lJNfAR5JcigIlx-93">
          <mxGeometry relative="1" as="geometry">
            <Array as="points">
              <mxPoint x="580" y="860" />
              <mxPoint x="580" y="950" />
              <mxPoint x="730" y="950" />
            </Array>
          </mxGeometry>
        </mxCell>
        <mxCell id="2jY6_2lJNfAR5JcigIlx-79" value="hidden&lt;br style=&quot;border-color: var(--border-color);&quot;&gt;activations" style="ellipse;whiteSpace=wrap;html=1;" vertex="1" parent="1">
          <mxGeometry x="470" y="840" width="80" height="40" as="geometry" />
        </mxCell>
        <mxCell id="2jY6_2lJNfAR5JcigIlx-80" style="rounded=0;orthogonalLoop=1;jettySize=auto;html=1;exitX=0.5;exitY=0;exitDx=0;exitDy=0;entryX=0.5;entryY=1;entryDx=0;entryDy=0;fillColor=#f8cecc;strokeColor=#b85450;" edge="1" source="2jY6_2lJNfAR5JcigIlx-81" target="2jY6_2lJNfAR5JcigIlx-79" parent="1">
          <mxGeometry relative="1" as="geometry" />
        </mxCell>
        <mxCell id="2jY6_2lJNfAR5JcigIlx-81" value="&quot;Y&quot;&amp;nbsp;" style="rounded=1;whiteSpace=wrap;html=1;" vertex="1" parent="1">
          <mxGeometry x="400" y="890" width="50" height="40" as="geometry" />
        </mxCell>
        <mxCell id="2jY6_2lJNfAR5JcigIlx-86" style="edgeStyle=orthogonalEdgeStyle;rounded=0;orthogonalLoop=1;jettySize=auto;html=1;exitX=0.5;exitY=0;exitDx=0;exitDy=0;entryX=0.5;entryY=1;entryDx=0;entryDy=0;fillColor=#ffe6cc;strokeColor=#d79b00;" edge="1" target="2jY6_2lJNfAR5JcigIlx-88" parent="1">
          <mxGeometry relative="1" as="geometry">
            <mxPoint x="510" y="840" as="sourcePoint" />
          </mxGeometry>
        </mxCell>
        <mxCell id="2jY6_2lJNfAR5JcigIlx-107" style="edgeStyle=orthogonalEdgeStyle;rounded=0;orthogonalLoop=1;jettySize=auto;html=1;exitX=0.5;exitY=0;exitDx=0;exitDy=0;entryX=0.5;entryY=1;entryDx=0;entryDy=0;dashed=1;endArrow=block;endFill=1;" edge="1" parent="1" source="2jY6_2lJNfAR5JcigIlx-88" target="2jY6_2lJNfAR5JcigIlx-105">
          <mxGeometry relative="1" as="geometry" />
        </mxCell>
        <mxCell id="2jY6_2lJNfAR5JcigIlx-88" value="output activations" style="rhombus;whiteSpace=wrap;html=1;" vertex="1" parent="1">
          <mxGeometry x="430" y="780" width="160" height="40" as="geometry" />
        </mxCell>
        <mxCell id="2jY6_2lJNfAR5JcigIlx-91" style="edgeStyle=orthogonalEdgeStyle;rounded=0;orthogonalLoop=1;jettySize=auto;html=1;exitX=1;exitY=0.5;exitDx=0;exitDy=0;dashed=1;endArrow=block;endFill=1;" edge="1" parent="1">
          <mxGeometry relative="1" as="geometry">
            <mxPoint x="510" y="880" as="targetPoint" />
            <mxPoint x="320" y="700" as="sourcePoint" />
            <Array as="points">
              <mxPoint x="350" y="700" />
              <mxPoint x="350" y="950" />
              <mxPoint x="510" y="950" />
            </Array>
          </mxGeometry>
        </mxCell>
        <mxCell id="2jY6_2lJNfAR5JcigIlx-93" value="hidden&lt;br style=&quot;border-color: var(--border-color);&quot;&gt;activations" style="ellipse;whiteSpace=wrap;html=1;" vertex="1" parent="1">
          <mxGeometry x="690" y="840" width="80" height="40" as="geometry" />
        </mxCell>
        <mxCell id="2jY6_2lJNfAR5JcigIlx-94" style="rounded=0;orthogonalLoop=1;jettySize=auto;html=1;exitX=0.5;exitY=0;exitDx=0;exitDy=0;entryX=0.5;entryY=1;entryDx=0;entryDy=0;fillColor=#f8cecc;strokeColor=#b85450;" edge="1" source="2jY6_2lJNfAR5JcigIlx-95" target="2jY6_2lJNfAR5JcigIlx-93" parent="1">
          <mxGeometry relative="1" as="geometry" />
        </mxCell>
        <mxCell id="2jY6_2lJNfAR5JcigIlx-95" value="&quot;U&quot;&amp;nbsp;" style="rounded=1;whiteSpace=wrap;html=1;" vertex="1" parent="1">
          <mxGeometry x="620" y="890" width="50" height="40" as="geometry" />
        </mxCell>
        <mxCell id="2jY6_2lJNfAR5JcigIlx-96" style="edgeStyle=orthogonalEdgeStyle;rounded=0;orthogonalLoop=1;jettySize=auto;html=1;exitX=0.5;exitY=0;exitDx=0;exitDy=0;entryX=0.5;entryY=1;entryDx=0;entryDy=0;fillColor=#ffe6cc;strokeColor=#d79b00;" edge="1" target="2jY6_2lJNfAR5JcigIlx-97" parent="1">
          <mxGeometry relative="1" as="geometry">
            <mxPoint x="730" y="840" as="sourcePoint" />
          </mxGeometry>
        </mxCell>
        <mxCell id="2jY6_2lJNfAR5JcigIlx-108" style="edgeStyle=orthogonalEdgeStyle;rounded=0;orthogonalLoop=1;jettySize=auto;html=1;entryX=0.5;entryY=1;entryDx=0;entryDy=0;dashed=1;endArrow=block;endFill=1;" edge="1" parent="1" source="2jY6_2lJNfAR5JcigIlx-97" target="2jY6_2lJNfAR5JcigIlx-106">
          <mxGeometry relative="1" as="geometry" />
        </mxCell>
        <mxCell id="2jY6_2lJNfAR5JcigIlx-97" value="output activations" style="rhombus;whiteSpace=wrap;html=1;" vertex="1" parent="1">
          <mxGeometry x="650" y="780" width="160" height="40" as="geometry" />
        </mxCell>
        <mxCell id="2jY6_2lJNfAR5JcigIlx-102" value="cross entropy with label &quot;Y&quot;" style="whiteSpace=wrap;html=1;aspect=fixed;fillColor=#f5f5f5;fontColor=#333333;strokeColor=#666666;" vertex="1" parent="1">
          <mxGeometry x="240" y="520" width="80" height="80" as="geometry" />
        </mxCell>
        <mxCell id="2jY6_2lJNfAR5JcigIlx-105" value="cross entropy with label &quot;U&quot;" style="whiteSpace=wrap;html=1;aspect=fixed;fillColor=#f5f5f5;fontColor=#333333;strokeColor=#666666;" vertex="1" parent="1">
          <mxGeometry x="470" y="680" width="80" height="80" as="geometry" />
        </mxCell>
        <mxCell id="2jY6_2lJNfAR5JcigIlx-106" value="cross entropy with label &quot;H&quot;" style="whiteSpace=wrap;html=1;aspect=fixed;fillColor=#f5f5f5;fontColor=#333333;strokeColor=#666666;" vertex="1" parent="1">
          <mxGeometry x="690" y="680" width="80" height="80" as="geometry" />
        </mxCell>
        <mxCell id="2jY6_2lJNfAR5JcigIlx-110" value="First Sample" style="text;html=1;align=center;verticalAlign=middle;whiteSpace=wrap;rounded=0;strokeColor=default;" vertex="1" parent="1">
          <mxGeometry x="160" y="490" width="210" height="20" as="geometry" />
        </mxCell>
        <mxCell id="2jY6_2lJNfAR5JcigIlx-111" value="" style="rounded=0;whiteSpace=wrap;html=1;fillColor=none;" vertex="1" parent="1">
          <mxGeometry x="390" y="640" width="210" height="340" as="geometry" />
        </mxCell>
        <mxCell id="2jY6_2lJNfAR5JcigIlx-112" value="Second Sample" style="text;html=1;align=center;verticalAlign=middle;whiteSpace=wrap;rounded=0;strokeColor=default;" vertex="1" parent="1">
          <mxGeometry x="390" y="640" width="210" height="20" as="geometry" />
        </mxCell>
        <mxCell id="2jY6_2lJNfAR5JcigIlx-114" value="Third Sample" style="text;html=1;align=center;verticalAlign=middle;whiteSpace=wrap;rounded=0;strokeColor=default;" vertex="1" parent="1">
          <mxGeometry x="610" y="640" width="210" height="20" as="geometry" />
        </mxCell>
        <mxCell id="2jY6_2lJNfAR5JcigIlx-149" style="edgeStyle=orthogonalEdgeStyle;rounded=0;orthogonalLoop=1;jettySize=auto;html=1;exitX=1;exitY=0.5;exitDx=0;exitDy=0;entryX=0.5;entryY=1;entryDx=0;entryDy=0;dashed=1;" edge="1" parent="1" source="2jY6_2lJNfAR5JcigIlx-150" target="2jY6_2lJNfAR5JcigIlx-157">
          <mxGeometry relative="1" as="geometry">
            <Array as="points">
              <mxPoint x="550" y="1570" />
              <mxPoint x="550" y="1660" />
              <mxPoint x="700" y="1660" />
            </Array>
          </mxGeometry>
        </mxCell>
        <mxCell id="2jY6_2lJNfAR5JcigIlx-150" value="hidden&lt;br style=&quot;border-color: var(--border-color);&quot;&gt;activations" style="ellipse;whiteSpace=wrap;html=1;" vertex="1" parent="1">
          <mxGeometry x="440" y="1550" width="80" height="40" as="geometry" />
        </mxCell>
        <mxCell id="2jY6_2lJNfAR5JcigIlx-151" style="rounded=0;orthogonalLoop=1;jettySize=auto;html=1;exitX=0.5;exitY=0;exitDx=0;exitDy=0;entryX=0.5;entryY=1;entryDx=0;entryDy=0;fillColor=#f8cecc;strokeColor=#b85450;" edge="1" parent="1" source="2jY6_2lJNfAR5JcigIlx-152" target="2jY6_2lJNfAR5JcigIlx-150">
          <mxGeometry relative="1" as="geometry" />
        </mxCell>
        <mxCell id="2jY6_2lJNfAR5JcigIlx-152" value="&quot;Y&quot;&amp;nbsp;" style="rounded=1;whiteSpace=wrap;html=1;" vertex="1" parent="1">
          <mxGeometry x="370" y="1600" width="50" height="40" as="geometry" />
        </mxCell>
        <mxCell id="2jY6_2lJNfAR5JcigIlx-153" style="edgeStyle=orthogonalEdgeStyle;rounded=0;orthogonalLoop=1;jettySize=auto;html=1;exitX=0.5;exitY=0;exitDx=0;exitDy=0;entryX=0.5;entryY=1;entryDx=0;entryDy=0;fillColor=#ffe6cc;strokeColor=#d79b00;" edge="1" parent="1" target="2jY6_2lJNfAR5JcigIlx-155">
          <mxGeometry relative="1" as="geometry">
            <mxPoint x="480" y="1550" as="sourcePoint" />
          </mxGeometry>
        </mxCell>
        <mxCell id="2jY6_2lJNfAR5JcigIlx-154" style="edgeStyle=orthogonalEdgeStyle;rounded=0;orthogonalLoop=1;jettySize=auto;html=1;exitX=0.5;exitY=0;exitDx=0;exitDy=0;entryX=0.5;entryY=1;entryDx=0;entryDy=0;dashed=1;endArrow=block;endFill=1;" edge="1" parent="1" source="2jY6_2lJNfAR5JcigIlx-155" target="2jY6_2lJNfAR5JcigIlx-164">
          <mxGeometry relative="1" as="geometry" />
        </mxCell>
        <mxCell id="2jY6_2lJNfAR5JcigIlx-155" value="output activations" style="rhombus;whiteSpace=wrap;html=1;" vertex="1" parent="1">
          <mxGeometry x="400" y="1490" width="160" height="40" as="geometry" />
        </mxCell>
        <mxCell id="2jY6_2lJNfAR5JcigIlx-157" value="hidden&lt;br style=&quot;border-color: var(--border-color);&quot;&gt;activations" style="ellipse;whiteSpace=wrap;html=1;" vertex="1" parent="1">
          <mxGeometry x="660" y="1550" width="80" height="40" as="geometry" />
        </mxCell>
        <mxCell id="2jY6_2lJNfAR5JcigIlx-158" style="rounded=0;orthogonalLoop=1;jettySize=auto;html=1;exitX=0.5;exitY=0;exitDx=0;exitDy=0;entryX=0.5;entryY=1;entryDx=0;entryDy=0;fillColor=#f8cecc;strokeColor=#b85450;" edge="1" parent="1" source="2jY6_2lJNfAR5JcigIlx-159" target="2jY6_2lJNfAR5JcigIlx-157">
          <mxGeometry relative="1" as="geometry" />
        </mxCell>
        <mxCell id="2jY6_2lJNfAR5JcigIlx-159" value="&quot;U&quot;&amp;nbsp;" style="rounded=1;whiteSpace=wrap;html=1;" vertex="1" parent="1">
          <mxGeometry x="590" y="1600" width="50" height="40" as="geometry" />
        </mxCell>
        <mxCell id="2jY6_2lJNfAR5JcigIlx-160" style="edgeStyle=orthogonalEdgeStyle;rounded=0;orthogonalLoop=1;jettySize=auto;html=1;exitX=0.5;exitY=0;exitDx=0;exitDy=0;entryX=0.5;entryY=1;entryDx=0;entryDy=0;fillColor=#ffe6cc;strokeColor=#d79b00;" edge="1" parent="1" target="2jY6_2lJNfAR5JcigIlx-162">
          <mxGeometry relative="1" as="geometry">
            <mxPoint x="700" y="1550" as="sourcePoint" />
          </mxGeometry>
        </mxCell>
        <mxCell id="2jY6_2lJNfAR5JcigIlx-161" style="edgeStyle=orthogonalEdgeStyle;rounded=0;orthogonalLoop=1;jettySize=auto;html=1;entryX=0.5;entryY=1;entryDx=0;entryDy=0;dashed=1;endArrow=block;endFill=1;" edge="1" parent="1" source="2jY6_2lJNfAR5JcigIlx-162" target="2jY6_2lJNfAR5JcigIlx-165">
          <mxGeometry relative="1" as="geometry" />
        </mxCell>
        <mxCell id="2jY6_2lJNfAR5JcigIlx-162" value="output activations" style="rhombus;whiteSpace=wrap;html=1;" vertex="1" parent="1">
          <mxGeometry x="620" y="1490" width="160" height="40" as="geometry" />
        </mxCell>
        <mxCell id="2jY6_2lJNfAR5JcigIlx-164" value="cross entropy with label &quot;U&quot;" style="whiteSpace=wrap;html=1;aspect=fixed;fillColor=#f5f5f5;fontColor=#333333;strokeColor=#666666;" vertex="1" parent="1">
          <mxGeometry x="440" y="1390" width="80" height="80" as="geometry" />
        </mxCell>
        <mxCell id="2jY6_2lJNfAR5JcigIlx-165" value="cross entropy with label &quot;H&quot;" style="whiteSpace=wrap;html=1;aspect=fixed;fillColor=#f5f5f5;fontColor=#333333;strokeColor=#666666;" vertex="1" parent="1">
          <mxGeometry x="660" y="1390" width="80" height="80" as="geometry" />
        </mxCell>
        <mxCell id="2jY6_2lJNfAR5JcigIlx-169" value="Second Token" style="text;html=1;align=center;verticalAlign=middle;whiteSpace=wrap;rounded=0;strokeColor=default;" vertex="1" parent="1">
          <mxGeometry x="360" y="1350" width="210" height="20" as="geometry" />
        </mxCell>
        <mxCell id="2jY6_2lJNfAR5JcigIlx-170" value="Third Token" style="text;html=1;align=center;verticalAlign=middle;whiteSpace=wrap;rounded=0;strokeColor=default;" vertex="1" parent="1">
          <mxGeometry x="580" y="1350" width="210" height="20" as="geometry" />
        </mxCell>
        <mxCell id="2jY6_2lJNfAR5JcigIlx-184" style="edgeStyle=orthogonalEdgeStyle;rounded=0;orthogonalLoop=1;jettySize=auto;html=1;exitX=1;exitY=0.5;exitDx=0;exitDy=0;entryX=0.5;entryY=1;entryDx=0;entryDy=0;dashed=1;endArrow=block;endFill=1;" edge="1" parent="1" source="2jY6_2lJNfAR5JcigIlx-171" target="2jY6_2lJNfAR5JcigIlx-150">
          <mxGeometry relative="1" as="geometry">
            <Array as="points">
              <mxPoint x="320" y="1570" />
              <mxPoint x="320" y="1660" />
              <mxPoint x="480" y="1660" />
            </Array>
          </mxGeometry>
        </mxCell>
        <mxCell id="2jY6_2lJNfAR5JcigIlx-171" value="hidden&lt;br style=&quot;border-color: var(--border-color);&quot;&gt;activations" style="ellipse;whiteSpace=wrap;html=1;" vertex="1" parent="1">
          <mxGeometry x="220" y="1550" width="80" height="40" as="geometry" />
        </mxCell>
        <mxCell id="2jY6_2lJNfAR5JcigIlx-172" style="rounded=0;orthogonalLoop=1;jettySize=auto;html=1;exitX=0.5;exitY=0;exitDx=0;exitDy=0;entryX=0.5;entryY=1;entryDx=0;entryDy=0;fillColor=#f8cecc;strokeColor=#b85450;" edge="1" source="2jY6_2lJNfAR5JcigIlx-173" target="2jY6_2lJNfAR5JcigIlx-171" parent="1">
          <mxGeometry relative="1" as="geometry" />
        </mxCell>
        <mxCell id="2jY6_2lJNfAR5JcigIlx-173" value="&quot;.&quot;&amp;nbsp;" style="rounded=1;whiteSpace=wrap;html=1;" vertex="1" parent="1">
          <mxGeometry x="150" y="1600" width="50" height="40" as="geometry" />
        </mxCell>
        <mxCell id="2jY6_2lJNfAR5JcigIlx-174" style="edgeStyle=orthogonalEdgeStyle;rounded=0;orthogonalLoop=1;jettySize=auto;html=1;exitX=0.5;exitY=0;exitDx=0;exitDy=0;entryX=0.5;entryY=1;entryDx=0;entryDy=0;fillColor=#ffe6cc;strokeColor=#d79b00;" edge="1" target="2jY6_2lJNfAR5JcigIlx-176" parent="1">
          <mxGeometry relative="1" as="geometry">
            <mxPoint x="260" y="1550" as="sourcePoint" />
          </mxGeometry>
        </mxCell>
        <mxCell id="2jY6_2lJNfAR5JcigIlx-175" style="edgeStyle=orthogonalEdgeStyle;rounded=0;orthogonalLoop=1;jettySize=auto;html=1;exitX=0.5;exitY=0;exitDx=0;exitDy=0;entryX=0.5;entryY=1;entryDx=0;entryDy=0;dashed=1;endArrow=block;endFill=1;" edge="1" source="2jY6_2lJNfAR5JcigIlx-176" target="2jY6_2lJNfAR5JcigIlx-177" parent="1">
          <mxGeometry relative="1" as="geometry" />
        </mxCell>
        <mxCell id="2jY6_2lJNfAR5JcigIlx-176" value="output activations" style="rhombus;whiteSpace=wrap;html=1;" vertex="1" parent="1">
          <mxGeometry x="180" y="1490" width="160" height="40" as="geometry" />
        </mxCell>
        <mxCell id="2jY6_2lJNfAR5JcigIlx-177" value="cross entropy with label &quot;Y&quot;" style="whiteSpace=wrap;html=1;aspect=fixed;fillColor=#f5f5f5;fontColor=#333333;strokeColor=#666666;" vertex="1" parent="1">
          <mxGeometry x="220" y="1390" width="80" height="80" as="geometry" />
        </mxCell>
        <mxCell id="2jY6_2lJNfAR5JcigIlx-179" value="First token" style="text;html=1;align=center;verticalAlign=middle;whiteSpace=wrap;rounded=0;strokeColor=default;" vertex="1" parent="1">
          <mxGeometry x="140" y="1350" width="210" height="20" as="geometry" />
        </mxCell>
        <mxCell id="2jY6_2lJNfAR5JcigIlx-183" style="edgeStyle=orthogonalEdgeStyle;rounded=0;orthogonalLoop=1;jettySize=auto;html=1;entryX=0.571;entryY=0.75;entryDx=0;entryDy=0;entryPerimeter=0;endArrow=block;endFill=1;dashed=1;" edge="1" parent="1" source="2jY6_2lJNfAR5JcigIlx-180" target="2jY6_2lJNfAR5JcigIlx-178">
          <mxGeometry relative="1" as="geometry" />
        </mxCell>
        <mxCell id="2jY6_2lJNfAR5JcigIlx-180" value="dummy activations" style="shape=hexagon;perimeter=hexagonPerimeter2;whiteSpace=wrap;html=1;fixedSize=1;" vertex="1" parent="1">
          <mxGeometry x="220" y="1620" width="80" height="40" as="geometry" />
        </mxCell>
        <mxCell id="2jY6_2lJNfAR5JcigIlx-185" value="1" style="rounded=0;whiteSpace=wrap;html=1;" vertex="1" parent="1">
          <mxGeometry x="300" y="1840" width="40" height="40" as="geometry" />
        </mxCell>
        <mxCell id="2jY6_2lJNfAR5JcigIlx-186" value="2" style="rounded=0;whiteSpace=wrap;html=1;" vertex="1" parent="1">
          <mxGeometry x="340" y="1840" width="40" height="40" as="geometry" />
        </mxCell>
        <mxCell id="2jY6_2lJNfAR5JcigIlx-187" value="3" style="rounded=0;whiteSpace=wrap;html=1;" vertex="1" parent="1">
          <mxGeometry x="380" y="1840" width="40" height="40" as="geometry" />
        </mxCell>
        <mxCell id="2jY6_2lJNfAR5JcigIlx-188" value="..." style="rounded=0;whiteSpace=wrap;html=1;" vertex="1" parent="1">
          <mxGeometry x="420" y="1840" width="40" height="40" as="geometry" />
        </mxCell>
        <mxCell id="2jY6_2lJNfAR5JcigIlx-189" value="100" style="rounded=0;whiteSpace=wrap;html=1;" vertex="1" parent="1">
          <mxGeometry x="460" y="1840" width="40" height="40" as="geometry" />
        </mxCell>
        <mxCell id="2jY6_2lJNfAR5JcigIlx-205" value="1" style="rounded=0;whiteSpace=wrap;html=1;" vertex="1" parent="1">
          <mxGeometry x="230" y="1930" width="40" height="40" as="geometry" />
        </mxCell>
        <mxCell id="2jY6_2lJNfAR5JcigIlx-206" value="21" style="rounded=0;whiteSpace=wrap;html=1;" vertex="1" parent="1">
          <mxGeometry x="230" y="1970" width="40" height="40" as="geometry" />
        </mxCell>
        <mxCell id="2jY6_2lJNfAR5JcigIlx-207" value="41" style="rounded=0;whiteSpace=wrap;html=1;" vertex="1" parent="1">
          <mxGeometry x="230" y="2010" width="40" height="40" as="geometry" />
        </mxCell>
        <mxCell id="2jY6_2lJNfAR5JcigIlx-208" value="61" style="rounded=0;whiteSpace=wrap;html=1;" vertex="1" parent="1">
          <mxGeometry x="230" y="2050" width="40" height="40" as="geometry" />
        </mxCell>
        <mxCell id="2jY6_2lJNfAR5JcigIlx-209" value="81" style="rounded=0;whiteSpace=wrap;html=1;" vertex="1" parent="1">
          <mxGeometry x="230" y="2090" width="40" height="40" as="geometry" />
        </mxCell>
        <mxCell id="2jY6_2lJNfAR5JcigIlx-215" value="21" style="rounded=0;whiteSpace=wrap;html=1;" vertex="1" parent="1">
          <mxGeometry x="230" y="1970" width="40" height="40" as="geometry" />
        </mxCell>
        <mxCell id="2jY6_2lJNfAR5JcigIlx-220" value="2" style="rounded=0;whiteSpace=wrap;html=1;" vertex="1" parent="1">
          <mxGeometry x="310" y="1930" width="40" height="40" as="geometry" />
        </mxCell>
        <mxCell id="2jY6_2lJNfAR5JcigIlx-221" value="21" style="rounded=0;whiteSpace=wrap;html=1;" vertex="1" parent="1">
          <mxGeometry x="310" y="1970" width="40" height="40" as="geometry" />
        </mxCell>
        <mxCell id="2jY6_2lJNfAR5JcigIlx-222" value="42" style="rounded=0;whiteSpace=wrap;html=1;" vertex="1" parent="1">
          <mxGeometry x="310" y="2010" width="40" height="40" as="geometry" />
        </mxCell>
        <mxCell id="2jY6_2lJNfAR5JcigIlx-223" value="62" style="rounded=0;whiteSpace=wrap;html=1;" vertex="1" parent="1">
          <mxGeometry x="310" y="2050" width="40" height="40" as="geometry" />
        </mxCell>
        <mxCell id="2jY6_2lJNfAR5JcigIlx-224" value="82" style="rounded=0;whiteSpace=wrap;html=1;" vertex="1" parent="1">
          <mxGeometry x="310" y="2090" width="40" height="40" as="geometry" />
        </mxCell>
        <mxCell id="2jY6_2lJNfAR5JcigIlx-225" value="22" style="rounded=0;whiteSpace=wrap;html=1;" vertex="1" parent="1">
          <mxGeometry x="310" y="1970" width="40" height="40" as="geometry" />
        </mxCell>
        <mxCell id="2jY6_2lJNfAR5JcigIlx-226" value="3" style="rounded=0;whiteSpace=wrap;html=1;" vertex="1" parent="1">
          <mxGeometry x="390" y="1930" width="40" height="40" as="geometry" />
        </mxCell>
        <mxCell id="2jY6_2lJNfAR5JcigIlx-227" value="21" style="rounded=0;whiteSpace=wrap;html=1;" vertex="1" parent="1">
          <mxGeometry x="390" y="1970" width="40" height="40" as="geometry" />
        </mxCell>
        <mxCell id="2jY6_2lJNfAR5JcigIlx-228" value="43" style="rounded=0;whiteSpace=wrap;html=1;" vertex="1" parent="1">
          <mxGeometry x="390" y="2010" width="40" height="40" as="geometry" />
        </mxCell>
        <mxCell id="2jY6_2lJNfAR5JcigIlx-229" value="63" style="rounded=0;whiteSpace=wrap;html=1;" vertex="1" parent="1">
          <mxGeometry x="390" y="2050" width="40" height="40" as="geometry" />
        </mxCell>
        <mxCell id="2jY6_2lJNfAR5JcigIlx-230" value="83" style="rounded=0;whiteSpace=wrap;html=1;" vertex="1" parent="1">
          <mxGeometry x="390" y="2090" width="40" height="40" as="geometry" />
        </mxCell>
        <mxCell id="2jY6_2lJNfAR5JcigIlx-231" value="23" style="rounded=0;whiteSpace=wrap;html=1;" vertex="1" parent="1">
          <mxGeometry x="390" y="1970" width="40" height="40" as="geometry" />
        </mxCell>
        <mxCell id="2jY6_2lJNfAR5JcigIlx-232" value="19" style="rounded=0;whiteSpace=wrap;html=1;" vertex="1" parent="1">
          <mxGeometry x="510" y="1930" width="40" height="40" as="geometry" />
        </mxCell>
        <mxCell id="2jY6_2lJNfAR5JcigIlx-233" value="21" style="rounded=0;whiteSpace=wrap;html=1;" vertex="1" parent="1">
          <mxGeometry x="510" y="1970" width="40" height="40" as="geometry" />
        </mxCell>
        <mxCell id="2jY6_2lJNfAR5JcigIlx-234" value="59" style="rounded=0;whiteSpace=wrap;html=1;" vertex="1" parent="1">
          <mxGeometry x="510" y="2010" width="40" height="40" as="geometry" />
        </mxCell>
        <mxCell id="2jY6_2lJNfAR5JcigIlx-235" value="79" style="rounded=0;whiteSpace=wrap;html=1;" vertex="1" parent="1">
          <mxGeometry x="510" y="2050" width="40" height="40" as="geometry" />
        </mxCell>
        <mxCell id="2jY6_2lJNfAR5JcigIlx-236" value="99" style="rounded=0;whiteSpace=wrap;html=1;" vertex="1" parent="1">
          <mxGeometry x="510" y="2090" width="40" height="40" as="geometry" />
        </mxCell>
        <mxCell id="2jY6_2lJNfAR5JcigIlx-237" value="39" style="rounded=0;whiteSpace=wrap;html=1;" vertex="1" parent="1">
          <mxGeometry x="510" y="1970" width="40" height="40" as="geometry" />
        </mxCell>
        <mxCell id="2jY6_2lJNfAR5JcigIlx-238" value="20" style="rounded=0;whiteSpace=wrap;html=1;" vertex="1" parent="1">
          <mxGeometry x="590" y="1930" width="40" height="40" as="geometry" />
        </mxCell>
        <mxCell id="2jY6_2lJNfAR5JcigIlx-239" value="21" style="rounded=0;whiteSpace=wrap;html=1;" vertex="1" parent="1">
          <mxGeometry x="590" y="1970" width="40" height="40" as="geometry" />
        </mxCell>
        <mxCell id="2jY6_2lJNfAR5JcigIlx-240" value="60" style="rounded=0;whiteSpace=wrap;html=1;" vertex="1" parent="1">
          <mxGeometry x="590" y="2010" width="40" height="40" as="geometry" />
        </mxCell>
        <mxCell id="2jY6_2lJNfAR5JcigIlx-241" value="80" style="rounded=0;whiteSpace=wrap;html=1;" vertex="1" parent="1">
          <mxGeometry x="590" y="2050" width="40" height="40" as="geometry" />
        </mxCell>
        <mxCell id="2jY6_2lJNfAR5JcigIlx-242" value="100" style="rounded=0;whiteSpace=wrap;html=1;" vertex="1" parent="1">
          <mxGeometry x="590" y="2090" width="40" height="40" as="geometry" />
        </mxCell>
        <mxCell id="2jY6_2lJNfAR5JcigIlx-243" value="40" style="rounded=0;whiteSpace=wrap;html=1;" vertex="1" parent="1">
          <mxGeometry x="590" y="1970" width="40" height="40" as="geometry" />
        </mxCell>
        <mxCell id="2jY6_2lJNfAR5JcigIlx-244" value="&lt;font face=&quot;Courier New&quot;&gt;len(dataset) = 100&lt;br&gt;batch_size = 5&lt;br&gt;batches = 20 (=100/5)&lt;br&gt;&lt;/font&gt;" style="text;html=1;strokeColor=none;fillColor=none;align=left;verticalAlign=middle;whiteSpace=wrap;rounded=0;" vertex="1" parent="1">
          <mxGeometry x="20" y="1840" width="180" height="60" as="geometry" />
        </mxCell>
        <mxCell id="2jY6_2lJNfAR5JcigIlx-245" value="" style="strokeWidth=2;html=1;shape=mxgraph.flowchart.annotation_2;align=left;labelPosition=right;pointerEvents=1;rotation=-90;" vertex="1" parent="1">
          <mxGeometry x="409" y="1950" width="50" height="420" as="geometry" />
        </mxCell>
        <mxCell id="2jY6_2lJNfAR5JcigIlx-246" value="20 batches" style="text;html=1;strokeColor=none;fillColor=none;align=center;verticalAlign=middle;whiteSpace=wrap;rounded=0;" vertex="1" parent="1">
          <mxGeometry x="380" y="2190" width="100" height="30" as="geometry" />
        </mxCell>
        <mxCell id="2jY6_2lJNfAR5JcigIlx-247" value="" style="strokeWidth=2;html=1;shape=mxgraph.flowchart.annotation_2;align=left;labelPosition=right;pointerEvents=1;rotation=0;" vertex="1" parent="1">
          <mxGeometry x="162" y="1920" width="50" height="210" as="geometry" />
        </mxCell>
        <mxCell id="2jY6_2lJNfAR5JcigIlx-248" value="batch size of 5" style="text;html=1;strokeColor=none;fillColor=none;align=center;verticalAlign=middle;whiteSpace=wrap;rounded=0;" vertex="1" parent="1">
          <mxGeometry x="60" y="2010" width="100" height="30" as="geometry" />
        </mxCell>
        <mxCell id="2jY6_2lJNfAR5JcigIlx-249" value="&lt;font style=&quot;font-size: 32px;&quot;&gt;...&lt;/font&gt;" style="text;html=1;strokeColor=none;fillColor=none;align=center;verticalAlign=middle;whiteSpace=wrap;rounded=0;" vertex="1" parent="1">
          <mxGeometry x="440" y="2010" width="60" height="30" as="geometry" />
        </mxCell>
        <mxCell id="2jY6_2lJNfAR5JcigIlx-252" style="rounded=0;orthogonalLoop=1;jettySize=auto;html=1;endArrow=none;endFill=0;" edge="1" parent="1" source="2jY6_2lJNfAR5JcigIlx-251">
          <mxGeometry relative="1" as="geometry">
            <mxPoint x="460" y="1940" as="targetPoint" />
          </mxGeometry>
        </mxCell>
        <mxCell id="2jY6_2lJNfAR5JcigIlx-251" value="&lt;b&gt;Sequentially across batches per sample&lt;/b&gt;" style="text;html=1;strokeColor=none;fillColor=none;align=center;verticalAlign=middle;whiteSpace=wrap;rounded=0;" vertex="1" parent="1">
          <mxGeometry x="540" y="1870" width="130" height="30" as="geometry" />
        </mxCell>
        <mxCell id="2jY6_2lJNfAR5JcigIlx-253" value="first batch" style="text;html=1;strokeColor=none;fillColor=none;align=center;verticalAlign=middle;whiteSpace=wrap;rounded=0;rotation=-15;" vertex="1" parent="1">
          <mxGeometry x="230" y="1900" width="100" height="30" as="geometry" />
        </mxCell>
        <mxCell id="2jY6_2lJNfAR5JcigIlx-255" value="second batch" style="text;html=1;strokeColor=none;fillColor=none;align=center;verticalAlign=middle;whiteSpace=wrap;rounded=0;rotation=-15;" vertex="1" parent="1">
          <mxGeometry x="312" y="1898" width="100" height="30" as="geometry" />
        </mxCell>
        <mxCell id="2jY6_2lJNfAR5JcigIlx-259" value="" style="endArrow=classic;html=1;rounded=0;fillColor=#ffe6cc;strokeColor=#d79b00;" edge="1" parent="1">
          <mxGeometry width="50" height="50" relative="1" as="geometry">
            <mxPoint x="425" y="245" as="sourcePoint" />
            <mxPoint x="465" y="245" as="targetPoint" />
          </mxGeometry>
        </mxCell>
        <mxCell id="2jY6_2lJNfAR5JcigIlx-260" value="hidden-to-out" style="text;html=1;strokeColor=none;fillColor=none;align=center;verticalAlign=middle;whiteSpace=wrap;rounded=0;" vertex="1" parent="1">
          <mxGeometry x="465" y="230" width="80" height="30" as="geometry" />
        </mxCell>
        <mxCell id="2jY6_2lJNfAR5JcigIlx-261" value="input-to-hidden (embedding)" style="text;html=1;strokeColor=none;fillColor=none;align=center;verticalAlign=middle;whiteSpace=wrap;rounded=0;" vertex="1" parent="1">
          <mxGeometry x="465" y="270" width="90" height="30" as="geometry" />
        </mxCell>
        <mxCell id="2jY6_2lJNfAR5JcigIlx-262" value="" style="endArrow=classic;html=1;rounded=0;fillColor=#f8cecc;strokeColor=#b85450;" edge="1" parent="1">
          <mxGeometry width="50" height="50" relative="1" as="geometry">
            <mxPoint x="425" y="285" as="sourcePoint" />
            <mxPoint x="465" y="285" as="targetPoint" />
          </mxGeometry>
        </mxCell>
        <mxCell id="2jY6_2lJNfAR5JcigIlx-263" value="" style="endArrow=classic;html=1;rounded=0;fillColor=#0050ef;strokeColor=#001DBC;" edge="1" parent="1">
          <mxGeometry width="50" height="50" relative="1" as="geometry">
            <mxPoint x="425" y="325" as="sourcePoint" />
            <mxPoint x="465" y="325" as="targetPoint" />
          </mxGeometry>
        </mxCell>
        <mxCell id="2jY6_2lJNfAR5JcigIlx-264" value="hidden-to-hidden" style="text;html=1;strokeColor=none;fillColor=none;align=center;verticalAlign=middle;whiteSpace=wrap;rounded=0;" vertex="1" parent="1">
          <mxGeometry x="465" y="310" width="100" height="30" as="geometry" />
        </mxCell>
        <mxCell id="2jY6_2lJNfAR5JcigIlx-271" value="1" style="rounded=0;whiteSpace=wrap;html=1;" vertex="1" parent="1">
          <mxGeometry x="240" y="2380" width="40" height="40" as="geometry" />
        </mxCell>
        <mxCell id="2jY6_2lJNfAR5JcigIlx-272" value="21" style="rounded=0;whiteSpace=wrap;html=1;" vertex="1" parent="1">
          <mxGeometry x="240" y="2420" width="40" height="40" as="geometry" />
        </mxCell>
        <mxCell id="2jY6_2lJNfAR5JcigIlx-273" value="41" style="rounded=0;whiteSpace=wrap;html=1;" vertex="1" parent="1">
          <mxGeometry x="240" y="2460" width="40" height="40" as="geometry" />
        </mxCell>
        <mxCell id="2jY6_2lJNfAR5JcigIlx-274" value="61" style="rounded=0;whiteSpace=wrap;html=1;" vertex="1" parent="1">
          <mxGeometry x="240" y="2500" width="40" height="40" as="geometry" />
        </mxCell>
        <mxCell id="2jY6_2lJNfAR5JcigIlx-275" value="81" style="rounded=0;whiteSpace=wrap;html=1;" vertex="1" parent="1">
          <mxGeometry x="240" y="2540" width="40" height="40" as="geometry" />
        </mxCell>
        <mxCell id="2jY6_2lJNfAR5JcigIlx-276" value="21" style="rounded=0;whiteSpace=wrap;html=1;" vertex="1" parent="1">
          <mxGeometry x="240" y="2420" width="40" height="40" as="geometry" />
        </mxCell>
        <mxCell id="2jY6_2lJNfAR5JcigIlx-277" value="2" style="rounded=0;whiteSpace=wrap;html=1;" vertex="1" parent="1">
          <mxGeometry x="320" y="2380" width="40" height="40" as="geometry" />
        </mxCell>
        <mxCell id="2jY6_2lJNfAR5JcigIlx-278" value="21" style="rounded=0;whiteSpace=wrap;html=1;" vertex="1" parent="1">
          <mxGeometry x="320" y="2420" width="40" height="40" as="geometry" />
        </mxCell>
        <mxCell id="2jY6_2lJNfAR5JcigIlx-279" value="42" style="rounded=0;whiteSpace=wrap;html=1;" vertex="1" parent="1">
          <mxGeometry x="320" y="2460" width="40" height="40" as="geometry" />
        </mxCell>
        <mxCell id="2jY6_2lJNfAR5JcigIlx-280" value="62" style="rounded=0;whiteSpace=wrap;html=1;" vertex="1" parent="1">
          <mxGeometry x="320" y="2500" width="40" height="40" as="geometry" />
        </mxCell>
        <mxCell id="2jY6_2lJNfAR5JcigIlx-281" value="82" style="rounded=0;whiteSpace=wrap;html=1;" vertex="1" parent="1">
          <mxGeometry x="320" y="2540" width="40" height="40" as="geometry" />
        </mxCell>
        <mxCell id="2jY6_2lJNfAR5JcigIlx-282" value="22" style="rounded=0;whiteSpace=wrap;html=1;" vertex="1" parent="1">
          <mxGeometry x="320" y="2420" width="40" height="40" as="geometry" />
        </mxCell>
        <mxCell id="2jY6_2lJNfAR5JcigIlx-283" value="3" style="rounded=0;whiteSpace=wrap;html=1;" vertex="1" parent="1">
          <mxGeometry x="400" y="2380" width="40" height="40" as="geometry" />
        </mxCell>
        <mxCell id="2jY6_2lJNfAR5JcigIlx-284" value="21" style="rounded=0;whiteSpace=wrap;html=1;" vertex="1" parent="1">
          <mxGeometry x="400" y="2420" width="40" height="40" as="geometry" />
        </mxCell>
        <mxCell id="2jY6_2lJNfAR5JcigIlx-285" value="43" style="rounded=0;whiteSpace=wrap;html=1;" vertex="1" parent="1">
          <mxGeometry x="400" y="2460" width="40" height="40" as="geometry" />
        </mxCell>
        <mxCell id="2jY6_2lJNfAR5JcigIlx-286" value="63" style="rounded=0;whiteSpace=wrap;html=1;" vertex="1" parent="1">
          <mxGeometry x="400" y="2500" width="40" height="40" as="geometry" />
        </mxCell>
        <mxCell id="2jY6_2lJNfAR5JcigIlx-287" value="83" style="rounded=0;whiteSpace=wrap;html=1;" vertex="1" parent="1">
          <mxGeometry x="400" y="2540" width="40" height="40" as="geometry" />
        </mxCell>
        <mxCell id="2jY6_2lJNfAR5JcigIlx-288" value="23" style="rounded=0;whiteSpace=wrap;html=1;" vertex="1" parent="1">
          <mxGeometry x="400" y="2420" width="40" height="40" as="geometry" />
        </mxCell>
        <mxCell id="2jY6_2lJNfAR5JcigIlx-309" value="first batch" style="text;html=1;strokeColor=none;fillColor=none;align=center;verticalAlign=middle;whiteSpace=wrap;rounded=0;rotation=-15;" vertex="1" parent="1">
          <mxGeometry x="240" y="2350" width="100" height="30" as="geometry" />
        </mxCell>
        <mxCell id="2jY6_2lJNfAR5JcigIlx-310" value="second batch" style="text;html=1;strokeColor=none;fillColor=none;align=center;verticalAlign=middle;whiteSpace=wrap;rounded=0;rotation=-15;" vertex="1" parent="1">
          <mxGeometry x="322" y="2348" width="100" height="30" as="geometry" />
        </mxCell>
        <mxCell id="2jY6_2lJNfAR5JcigIlx-312" value="third batch" style="text;html=1;strokeColor=none;fillColor=none;align=center;verticalAlign=middle;whiteSpace=wrap;rounded=0;rotation=-15;" vertex="1" parent="1">
          <mxGeometry x="402" y="2348" width="100" height="30" as="geometry" />
        </mxCell>
        <mxCell id="2jY6_2lJNfAR5JcigIlx-313" value="Order of samples as specified by the Sample" style="text;html=1;strokeColor=none;fillColor=none;align=center;verticalAlign=middle;whiteSpace=wrap;rounded=0;fontStyle=1" vertex="1" parent="1">
          <mxGeometry x="419" y="2590" width="211" height="30" as="geometry" />
        </mxCell>
        <mxCell id="2jY6_2lJNfAR5JcigIlx-314" value="&lt;font style=&quot;font-size: 32px;&quot;&gt;...&lt;/font&gt;" style="text;html=1;strokeColor=none;fillColor=none;align=center;verticalAlign=middle;whiteSpace=wrap;rounded=0;" vertex="1" parent="1">
          <mxGeometry x="440" y="2460" width="60" height="30" as="geometry" />
        </mxCell>
      </root>
    </mxGraphModel>
  </diagram>
</mxfile>
